<mxfile host="app.diagrams.net" modified="2023-01-23T03:57:57.865Z" agent="5.0 (Macintosh; Intel Mac OS X 10_15_7) AppleWebKit/537.36 (KHTML, like Gecko) Chrome/108.0.0.0 Safari/537.36" etag="3MIju8_BUbgX9FeUlOkl" version="20.8.10" type="github">
  <diagram name="Page-1" id="Nr-ZPTDzSXNh9YXBG3D3">
    <mxGraphModel dx="1049" dy="559" grid="1" gridSize="10" guides="1" tooltips="1" connect="1" arrows="1" fold="1" page="1" pageScale="1" pageWidth="827" pageHeight="1169" math="0" shadow="0">
      <root>
        <mxCell id="0" />
        <mxCell id="1" parent="0" />
        <mxCell id="SE8nr3ef7S7woqF1FX29-1" value="Record&lt;br&gt;key - value" style="rounded=1;whiteSpace=wrap;html=1;" parent="1" vertex="1">
          <mxGeometry x="120" y="160" width="80" height="60" as="geometry" />
        </mxCell>
        <mxCell id="SE8nr3ef7S7woqF1FX29-9" value="Record&lt;br style=&quot;border-color: var(--border-color);&quot;&gt;key - value" style="rounded=1;whiteSpace=wrap;html=1;" parent="1" vertex="1">
          <mxGeometry x="220" y="160" width="80" height="60" as="geometry" />
        </mxCell>
        <mxCell id="SE8nr3ef7S7woqF1FX29-10" value="Record&lt;br style=&quot;border-color: var(--border-color);&quot;&gt;key - value" style="rounded=1;whiteSpace=wrap;html=1;" parent="1" vertex="1">
          <mxGeometry x="320" y="160" width="80" height="60" as="geometry" />
        </mxCell>
        <mxCell id="SE8nr3ef7S7woqF1FX29-11" value="Record&lt;br style=&quot;border-color: var(--border-color);&quot;&gt;key - value" style="rounded=1;whiteSpace=wrap;html=1;" parent="1" vertex="1">
          <mxGeometry x="420" y="160" width="80" height="60" as="geometry" />
        </mxCell>
        <mxCell id="SE8nr3ef7S7woqF1FX29-12" value="Record&lt;br style=&quot;border-color: var(--border-color);&quot;&gt;key - value" style="rounded=1;whiteSpace=wrap;html=1;" parent="1" vertex="1">
          <mxGeometry x="520" y="160" width="80" height="60" as="geometry" />
        </mxCell>
        <mxCell id="SE8nr3ef7S7woqF1FX29-13" value="Record&lt;br style=&quot;border-color: var(--border-color);&quot;&gt;key - value" style="rounded=1;whiteSpace=wrap;html=1;" parent="1" vertex="1">
          <mxGeometry x="620" y="160" width="80" height="60" as="geometry" />
        </mxCell>
        <mxCell id="SE8nr3ef7S7woqF1FX29-14" value="Record&lt;br style=&quot;border-color: var(--border-color);&quot;&gt;key - value" style="rounded=1;whiteSpace=wrap;html=1;" parent="1" vertex="1">
          <mxGeometry x="720" y="160" width="80" height="60" as="geometry" />
        </mxCell>
        <mxCell id="SE8nr3ef7S7woqF1FX29-15" value="Record&lt;br style=&quot;border-color: var(--border-color);&quot;&gt;key - value" style="rounded=1;whiteSpace=wrap;html=1;" parent="1" vertex="1">
          <mxGeometry x="820" y="160" width="80" height="60" as="geometry" />
        </mxCell>
        <mxCell id="SE8nr3ef7S7woqF1FX29-16" value="index_addr" style="rounded=0;whiteSpace=wrap;html=1;" parent="1" vertex="1">
          <mxGeometry x="120" y="400" width="80" height="40" as="geometry" />
        </mxCell>
        <mxCell id="SE8nr3ef7S7woqF1FX29-18" value="" style="rounded=1;whiteSpace=wrap;html=1;" parent="1" vertex="1">
          <mxGeometry x="240" y="320" width="130" height="220" as="geometry" />
        </mxCell>
        <mxCell id="SE8nr3ef7S7woqF1FX29-19" value="record key" style="rounded=0;whiteSpace=wrap;html=1;" parent="1" vertex="1">
          <mxGeometry x="260" y="340" width="90" height="30" as="geometry" />
        </mxCell>
        <mxCell id="SE8nr3ef7S7woqF1FX29-20" value="record key" style="rounded=0;whiteSpace=wrap;html=1;" parent="1" vertex="1">
          <mxGeometry x="260" y="390" width="90" height="30" as="geometry" />
        </mxCell>
        <mxCell id="SE8nr3ef7S7woqF1FX29-21" value="record key" style="rounded=0;whiteSpace=wrap;html=1;" parent="1" vertex="1">
          <mxGeometry x="260" y="440" width="90" height="30" as="geometry" />
        </mxCell>
        <mxCell id="SE8nr3ef7S7woqF1FX29-22" value="record key" style="rounded=0;whiteSpace=wrap;html=1;" parent="1" vertex="1">
          <mxGeometry x="260" y="490" width="90" height="30" as="geometry" />
        </mxCell>
        <mxCell id="SE8nr3ef7S7woqF1FX29-24" value="index_2" style="rounded=0;whiteSpace=wrap;html=1;" parent="1" vertex="1">
          <mxGeometry x="440" y="400" width="80" height="40" as="geometry" />
        </mxCell>
        <mxCell id="SE8nr3ef7S7woqF1FX29-25" value="" style="rounded=1;whiteSpace=wrap;html=1;" parent="1" vertex="1">
          <mxGeometry x="560" y="320" width="130" height="220" as="geometry" />
        </mxCell>
        <mxCell id="SE8nr3ef7S7woqF1FX29-26" value="record key" style="rounded=0;whiteSpace=wrap;html=1;" parent="1" vertex="1">
          <mxGeometry x="580" y="340" width="90" height="30" as="geometry" />
        </mxCell>
        <mxCell id="SE8nr3ef7S7woqF1FX29-27" value="record key" style="rounded=0;whiteSpace=wrap;html=1;" parent="1" vertex="1">
          <mxGeometry x="580" y="390" width="90" height="30" as="geometry" />
        </mxCell>
        <mxCell id="SE8nr3ef7S7woqF1FX29-28" value="record key" style="rounded=0;whiteSpace=wrap;html=1;" parent="1" vertex="1">
          <mxGeometry x="580" y="440" width="90" height="30" as="geometry" />
        </mxCell>
        <mxCell id="SE8nr3ef7S7woqF1FX29-29" value="record key" style="rounded=0;whiteSpace=wrap;html=1;" parent="1" vertex="1">
          <mxGeometry x="580" y="490" width="90" height="30" as="geometry" />
        </mxCell>
        <mxCell id="SE8nr3ef7S7woqF1FX29-30" value="Recrod" style="rounded=1;whiteSpace=wrap;html=1;verticalAlign=top;" parent="1" vertex="1">
          <mxGeometry x="125" y="1020" width="730" height="80" as="geometry" />
        </mxCell>
        <mxCell id="SE8nr3ef7S7woqF1FX29-31" value="Key&amp;nbsp;" style="rounded=0;whiteSpace=wrap;html=1;" parent="1" vertex="1">
          <mxGeometry x="135" y="1050" width="50" height="40" as="geometry" />
        </mxCell>
        <mxCell id="SE8nr3ef7S7woqF1FX29-32" value="Value = TXID + ModifiedTime + Document" style="rounded=0;whiteSpace=wrap;html=1;" parent="1" vertex="1">
          <mxGeometry x="205" y="1050" width="630" height="40" as="geometry" />
        </mxCell>
        <mxCell id="BuYLjKyW8J0pdunKHrLs-1" value="account_address + NAMESPACE + ns + user_key" style="rounded=0;whiteSpace=wrap;html=1;" vertex="1" parent="1">
          <mxGeometry x="120" y="830" width="450" height="30" as="geometry" />
        </mxCell>
        <mxCell id="BuYLjKyW8J0pdunKHrLs-2" value="Old primary Key" style="text;html=1;strokeColor=none;fillColor=none;align=center;verticalAlign=middle;whiteSpace=wrap;rounded=0;" vertex="1" parent="1">
          <mxGeometry x="115" y="800" width="135" height="30" as="geometry" />
        </mxCell>
        <mxCell id="BuYLjKyW8J0pdunKHrLs-3" value="" style="shape=flexArrow;endArrow=classic;html=1;rounded=0;" edge="1" parent="1">
          <mxGeometry width="50" height="50" relative="1" as="geometry">
            <mxPoint x="590" y="830" as="sourcePoint" />
            <mxPoint x="650" y="830" as="targetPoint" />
          </mxGeometry>
        </mxCell>
        <mxCell id="BuYLjKyW8J0pdunKHrLs-4" value="1. support Query(addr, ns, user_key)" style="text;html=1;strokeColor=none;fillColor=none;align=center;verticalAlign=middle;whiteSpace=wrap;rounded=0;" vertex="1" parent="1">
          <mxGeometry x="650" y="830" width="210" height="30" as="geometry" />
        </mxCell>
        <mxCell id="BuYLjKyW8J0pdunKHrLs-5" value="user_key + account_address + uid" style="rounded=0;whiteSpace=wrap;html=1;" vertex="1" parent="1">
          <mxGeometry x="125" y="950" width="450" height="30" as="geometry" />
        </mxCell>
        <mxCell id="BuYLjKyW8J0pdunKHrLs-6" value="New data primary key" style="text;html=1;strokeColor=none;fillColor=none;align=center;verticalAlign=middle;whiteSpace=wrap;rounded=0;" vertex="1" parent="1">
          <mxGeometry x="120" y="920" width="135" height="30" as="geometry" />
        </mxCell>
        <mxCell id="BuYLjKyW8J0pdunKHrLs-7" value="" style="shape=flexArrow;endArrow=classic;html=1;rounded=0;" edge="1" parent="1">
          <mxGeometry width="50" height="50" relative="1" as="geometry">
            <mxPoint x="595" y="964.5" as="sourcePoint" />
            <mxPoint x="655" y="964.5" as="targetPoint" />
          </mxGeometry>
        </mxCell>
        <mxCell id="BuYLjKyW8J0pdunKHrLs-8" value="1. support&amp;nbsp; Query(user_key)&lt;br&gt;2. support Query(user_key, addr)" style="text;html=1;strokeColor=none;fillColor=none;align=center;verticalAlign=middle;whiteSpace=wrap;rounded=0;" vertex="1" parent="1">
          <mxGeometry x="640" y="950" width="280" height="30" as="geometry" />
        </mxCell>
        <mxCell id="BuYLjKyW8J0pdunKHrLs-9" value="" style="shape=flexArrow;endArrow=classic;html=1;rounded=0;entryX=0.081;entryY=0.973;entryDx=0;entryDy=0;entryPerimeter=0;" edge="1" parent="1" source="SE8nr3ef7S7woqF1FX29-31" target="BuYLjKyW8J0pdunKHrLs-5">
          <mxGeometry width="50" height="50" relative="1" as="geometry">
            <mxPoint x="150" y="1040" as="sourcePoint" />
            <mxPoint x="200" y="990" as="targetPoint" />
          </mxGeometry>
        </mxCell>
        <mxCell id="BuYLjKyW8J0pdunKHrLs-10" value="Index" style="rounded=1;whiteSpace=wrap;html=1;verticalAlign=top;" vertex="1" parent="1">
          <mxGeometry x="120" y="1220" width="730" height="80" as="geometry" />
        </mxCell>
        <mxCell id="BuYLjKyW8J0pdunKHrLs-11" value="Key" style="rounded=0;whiteSpace=wrap;html=1;" vertex="1" parent="1">
          <mxGeometry x="130" y="1250" width="50" height="40" as="geometry" />
        </mxCell>
        <mxCell id="BuYLjKyW8J0pdunKHrLs-12" value="Value = TXID + ModifiedTime + PrimaryKeyStart" style="rounded=0;whiteSpace=wrap;html=1;" vertex="1" parent="1">
          <mxGeometry x="200" y="1250" width="630" height="40" as="geometry" />
        </mxCell>
        <mxCell id="BuYLjKyW8J0pdunKHrLs-13" value="index_key + account_address + uid" style="rounded=0;whiteSpace=wrap;html=1;" vertex="1" parent="1">
          <mxGeometry x="120" y="1150" width="450" height="30" as="geometry" />
        </mxCell>
        <mxCell id="BuYLjKyW8J0pdunKHrLs-14" value="" style="shape=flexArrow;endArrow=classic;html=1;rounded=0;" edge="1" parent="1">
          <mxGeometry width="50" height="50" relative="1" as="geometry">
            <mxPoint x="590" y="1164.5" as="sourcePoint" />
            <mxPoint x="650" y="1164.5" as="targetPoint" />
          </mxGeometry>
        </mxCell>
        <mxCell id="BuYLjKyW8J0pdunKHrLs-15" value="1. support&amp;nbsp; QueryWhere(index_item == &quot;index_key:&quot;)&lt;br&gt;2. support QueryWhere(index_item == &quot;index_key&quot;, addr)" style="text;html=1;strokeColor=none;fillColor=none;align=center;verticalAlign=middle;whiteSpace=wrap;rounded=0;" vertex="1" parent="1">
          <mxGeometry x="520" y="1150" width="655" height="30" as="geometry" />
        </mxCell>
        <mxCell id="BuYLjKyW8J0pdunKHrLs-16" value="" style="shape=flexArrow;endArrow=classic;html=1;rounded=0;entryX=0.081;entryY=0.973;entryDx=0;entryDy=0;entryPerimeter=0;" edge="1" parent="1" source="BuYLjKyW8J0pdunKHrLs-11" target="BuYLjKyW8J0pdunKHrLs-13">
          <mxGeometry width="50" height="50" relative="1" as="geometry">
            <mxPoint x="145" y="1240" as="sourcePoint" />
            <mxPoint x="195" y="1190" as="targetPoint" />
          </mxGeometry>
        </mxCell>
        <mxCell id="BuYLjKyW8J0pdunKHrLs-18" value="New index primary key" style="text;html=1;strokeColor=none;fillColor=none;align=center;verticalAlign=middle;whiteSpace=wrap;rounded=0;" vertex="1" parent="1">
          <mxGeometry x="120" y="1120" width="135" height="30" as="geometry" />
        </mxCell>
      </root>
    </mxGraphModel>
  </diagram>
</mxfile>
